# xmcd
#
# Track frame offsets: 
#        150
#        18968
#        35536
#        49576
#        68634
#        88206
#        101439
#        118743
#        130635
#        145065
#        160279
#        178346
#        194449
#        212939
#        230503
#        249363
#        262580
#        278941
#        295663
#        307591
#
# Disc length: 4291 seconds
#
# Revision: 1
# Processed by: cddbd v1.5.1PL2 Copyright (c) Steve Scherf et al.
# Submitted via: ExactAudioCopy v0.95a5
#
DISCID=1510c114
DTITLE=Various Artist - The Kings and Queens Of Country
DYEAR=1900
DGENRE=Country
TTITLE0=Kenny Rogers and Dolly Parton - Islands In The Stream
TTITLE1=Johnny Cash - A Boy Named Sue
TTITLE2=Glenn Campbell - Witchita Lineman
TTITLE3=Bobbie Gentry - Ode To Billy Joe
TTITLE4=Kenny Rogers - Coward Of The County
TTITLE5=Charlie Rich - Behind Closed Doors
TTITLE6=Dr Hook - Sylvia's Mother
TTITLE7=Dolly Parton - Jolene
TTITLE8=Soggy Bottom Boys - I Am A Man Of Constant Sorrow
TTITLE9=Jeannie C Riley - Harper Valley P.T.A
TTITLE10=Billy Swan - I Can Help
TTITLE11=Billie Jo Spears - Blanket On The Ground
TTITLE12=Kris Kristofferson - Me and Bobby McGee
TTITLE13=Judds - Love Can Build A Bridge
TTITLE14=Juice Newton - Angel Of The Morning
TTITLE15=Tammy Wynette - D.I.V.O.R.C.E
TTITLE16=Charlie Daniels Band - The Devil Went Down To Georgia
TTITLE17=Tony Joe White - Polk Salad Annie
TTITLE18=Dolly Parton - 9 To 5
TTITLE19=Bellamy Brothers - If I Said You Had A Beautiful Body
EXTD=
EXTT0=
EXTT1=
EXTT2=
EXTT3=
EXTT4=
EXTT5=
EXTT6=
EXTT7=
EXTT8=
EXTT9=
EXTT10=
EXTT11=
EXTT12=
EXTT13=
EXTT14=
EXTT15=
EXTT16=
EXTT17=
EXTT18=
EXTT19=
PLAYORDER=
